<svg width="38" height="38" viewBox="0 0 38 38" fill="none" xmlns="http://www.w3.org/2000/svg">
<path d="M19 38C8.50547 38 0 29.4945 0 19C0 8.50547 8.50547 0 19 0C29.4945 0 38 8.50547 38 19C38 29.4945 29.4945 38 19 38ZM17.2188 8.90625V19C17.2188 19.5938 17.5156 20.1504 18.0129 20.4844L25.1379 25.2344C25.9543 25.7836 27.0602 25.5609 27.6094 24.7371C28.1586 23.9133 27.9359 22.8148 27.1121 22.2656L20.7812 18.05V8.90625C20.7812 7.91914 19.9871 7.125 19 7.125C18.0129 7.125 17.2188 7.91914 17.2188 8.90625Z" fill="url(#paint0_linear_212_998)"/>
<defs>
<linearGradient id="paint0_linear_212_998" x1="19" y1="4.2937e-08" x2="19" y2="38" gradientUnits="userSpaceOnUse">
<stop stop-color="#B670FF"/>
<stop offset="1" stop-color="#9129FE"/>
</linearGradient>
</defs>
</svg>
