<svg width="20" height="21" viewBox="0 0 20 21" fill="none" xmlns="http://www.w3.org/2000/svg">
<path d="M16.2508 8.6254C16.2508 10.4185 15.6687 12.0748 14.6882 13.4186L19.6338 18.3681C20.1221 18.8564 20.1221 19.6494 19.6338 20.1377C19.1455 20.626 18.3525 20.626 17.8642 20.1377L12.9186 15.1882C11.5748 16.1726 9.91845 16.7508 8.1254 16.7508C3.6369 16.7508 0 13.1139 0 8.6254C0 4.1369 3.6369 0.5 8.1254 0.5C12.6139 0.5 16.2508 4.1369 16.2508 8.6254ZM8.1254 14.2507C11.231 14.2507 13.7507 11.731 13.7507 8.6254C13.7507 5.51978 11.231 3.00012 8.1254 3.00012C5.01978 3.00012 2.50012 5.51978 2.50012 8.6254C2.50012 11.731 5.01978 14.2507 8.1254 14.2507Z" fill="url(#paint0_linear_21_24)"/>
<defs>
<linearGradient id="paint0_linear_21_24" x1="10" y1="0.5" x2="10" y2="20.5039" gradientUnits="userSpaceOnUse">
<stop stop-color="#B670FF"/>
<stop offset="1" stop-color="#9129FE"/>
</linearGradient>
</defs>
</svg>
