<svg width="82" height="70" viewBox="0 0 82 70" fill="none" xmlns="http://www.w3.org/2000/svg">
<g clip-path="url(#clip0_42_11)">
<path d="M41.0744 69.3976C59.8052 69.3976 74.9896 53.9998 74.9896 35.0056C74.9896 16.0113 59.8052 0.613495 41.0744 0.613495C22.3435 0.613495 7.15918 16.0113 7.15918 35.0056C7.15918 53.9998 22.3435 69.3976 41.0744 69.3976Z" fill="url(#paint0_linear_42_11)"/>
<path d="M18.876 68.982C20.9424 65.2734 23.1072 61.1989 26.7562 58.8457C28.429 57.7647 30.3232 57.0579 32.324 57.1244C34.3986 57.1992 36.3174 58.3052 38.2362 58.9953C40.3518 59.7603 42.5412 59.9599 44.7306 59.3695C46.6494 58.854 48.3714 57.8146 50.2246 57.1327C51.881 56.5174 53.2996 56.3344 54.8576 56.9747C55.9482 57.4237 57.1618 58.4133 58.154 59.328C60.9994 61.9722 63.5824 65.0489 67.4036 66.213C69.9456 66.9863 71.028 62.9617 68.4942 62.1884C65.4684 61.2654 63.2462 58.3717 60.8764 56.2014C57.9736 53.5488 54.6116 51.7361 50.6018 52.6591C48.5682 53.1247 46.756 54.2307 44.8126 54.9624C42.738 55.7441 41.0816 55.6277 39.0152 54.8543C36.8094 54.0228 34.7266 53.0333 32.324 52.9501C30.0116 52.867 27.7074 53.5655 25.6738 54.6548C20.8194 57.2491 17.933 62.1967 15.3172 66.8699C14.0134 69.2148 17.5722 71.3186 18.876 68.982Z" fill="white"/>
<path d="M13.8008 3.12479C16.146 7.32401 18.6306 11.5648 22.6076 14.3837C24.5592 15.7724 26.8306 16.6787 29.2004 16.9614C31.5456 17.2442 33.735 16.6538 35.8998 15.7807C37.794 15.0157 39.7538 14.076 41.8284 14.575C43.8538 15.0572 45.6742 16.1715 47.6176 16.8866C51.5536 18.3418 55.1534 17.2774 58.3104 14.6997C61.1394 12.388 63.5256 8.85403 66.9778 7.79798C69.5116 7.02466 68.4292 3.00006 65.8872 3.77338C62.5088 4.80448 60.0488 7.35728 57.5724 9.76871C55.4404 11.8475 53.1608 13.9763 50.176 13.3027C48.249 12.8703 46.5024 11.8392 44.6738 11.1158C42.6238 10.3009 40.5082 10.0348 38.3352 10.5088C36.154 10.9827 34.2106 12.1801 32.0458 12.6957C30.25 13.1198 28.3148 12.7622 26.6748 11.9556C22.1976 9.76871 19.7048 5.22024 17.3514 1.0127C16.0476 -1.31558 12.4888 0.788191 13.8008 3.12479Z" fill="white"/>
<path d="M7.77359 47.1377C12.0668 47.1377 15.5472 41.6725 15.5472 34.9308C15.5472 28.1892 12.0668 22.724 7.77359 22.724C3.48035 22.724 0 28.1892 0 34.9308C0 41.6725 3.48035 47.1377 7.77359 47.1377Z" fill="white" stroke="white" stroke-width="0.3717" stroke-miterlimit="10"/>
<path d="M74.2262 47.2874C78.5195 47.2874 81.9998 41.8222 81.9998 35.0805C81.9998 28.3389 78.5195 22.8737 74.2262 22.8737C69.933 22.8737 66.4526 28.3389 66.4526 35.0805C66.4526 41.8222 69.933 47.2874 74.2262 47.2874Z" fill="white" stroke="white" stroke-width="0.3717" stroke-miterlimit="10"/>
<path d="M41.0001 41.8824C44.7046 41.8824 47.7077 38.8371 47.7077 35.0805C47.7077 31.3239 44.7046 28.2786 41.0001 28.2786C37.2956 28.2786 34.2925 31.3239 34.2925 35.0805C34.2925 38.8371 37.2956 41.8824 41.0001 41.8824Z" fill="white"/>
</g>
<defs>
<linearGradient id="paint0_linear_42_11" x1="41.0744" y1="0.613495" x2="41.0744" y2="69.3976" gradientUnits="userSpaceOnUse">
<stop stop-color="#B670FF"/>
<stop offset="1" stop-color="#9129FE"/>
</linearGradient>
<clipPath id="clip0_42_11">
<rect width="82" height="70" fill="white"/>
</clipPath>
</defs>
</svg>
