<svg width="41" height="27" viewBox="0 0 41 27" fill="none" xmlns="http://www.w3.org/2000/svg">
<path fill-rule="evenodd" clip-rule="evenodd" d="M20.8652 18.5166C20.8652 17.0239 20.5352 15.7529 19.873 14.706C19.2168 13.6553 18.2334 12.8921 16.9385 12.4077C17.793 11.9624 18.4395 11.4692 18.877 10.9272C19.6631 9.96045 20.0537 8.6875 20.0537 7.09717C20.0537 5.55567 19.668 4.2295 18.8887 3.12452C17.5918 1.32275 15.3945 0.405273 12.2949 0.353516H0V26.3686H11.4658C12.7559 26.3686 13.9541 26.251 15.0605 26.0171C16.1631 25.7842 17.123 25.3476 17.9336 24.7109C18.6533 24.1606 19.252 23.477 19.7344 22.6675C20.4922 21.4448 20.8652 20.06 20.8652 18.5166ZM26.6982 4.03467H36.9502L36.9512 1.43262H26.6982V4.03467ZM5.87109 10.6103H11.2588C12.3652 10.6103 13.2607 10.395 13.9502 9.96534C14.6387 9.53614 14.9824 8.77344 14.9824 7.67774C14.9824 6.46778 14.5273 5.66456 13.6152 5.27784C12.8301 5.00928 11.8271 4.8711 10.6094 4.8711H5.87109V10.6103ZM13.8818 15.3579C14.96 15.8594 15.501 16.7934 15.501 18.145C15.501 19.7471 14.9424 20.8266 13.8291 21.3935C13.2119 21.7021 12.3564 21.8501 11.251 21.8501H5.87109V14.917H11.3359C12.4268 14.9272 13.2783 15.0732 13.8818 15.3579ZM40.7549 13.9126C40.8789 14.7637 40.9346 15.9985 40.9121 17.6128H27.6348C27.708 19.4858 28.3398 20.7954 29.54 21.5449C30.2637 22.0146 31.1416 22.2441 32.1689 22.2441C33.252 22.2441 34.1348 21.9643 34.8145 21.3891C35.1846 21.084 35.5117 20.6538 35.7939 20.1108H40.6611C40.5332 21.2168 39.9473 22.3389 38.8945 23.4785C37.2627 25.2905 34.9746 26.1992 32.0361 26.1992C29.6084 26.1992 27.4688 25.4331 25.6113 23.9057C23.7607 22.3735 22.8311 19.8887 22.8311 16.4409C22.8311 13.2085 23.666 10.7339 25.3398 9.01172C27.0215 7.28614 29.1904 6.42725 31.8643 6.42725C33.4492 6.42725 34.8779 6.7168 36.1523 7.29883C37.4238 7.88135 38.4736 8.79834 39.3008 10.0581C40.0488 11.168 40.5303 12.4512 40.7549 13.9126ZM34.6895 11.4531C35.4521 12.123 35.875 13.103 35.9639 14.3984H27.748C27.9209 13.1811 28.3418 12.2202 29.0195 11.5132C29.6914 10.8047 30.6387 10.4443 31.8643 10.4443C32.9902 10.4443 33.9346 10.7817 34.6895 11.4531Z" fill="#0B75FE"/>
</svg>
