<svg width="39" height="39" viewBox="0 0 39 39" fill="none" xmlns="http://www.w3.org/2000/svg">
<path fill-rule="evenodd" clip-rule="evenodd" d="M38.9531 38.7431H0V0.772949H38.9531V38.7431ZM37.3301 2.39551H1.62305V37.1206H37.3301V2.39551ZM25.5137 14.3061C25.5137 14.1762 25.5625 14.1113 25.708 14.1113H28.2568C28.3867 14.1113 28.4512 14.1601 28.4512 14.3061V27.1088C28.4512 27.2387 28.4189 27.3037 28.2568 27.3037H25.7412C25.5791 27.3037 25.5303 27.2226 25.5303 27.0927V14.3061H25.5137ZM26.9912 8.96729C26.0664 8.96729 25.3359 9.58399 25.3359 10.6226C25.3359 11.6933 26.0176 12.2773 26.959 12.2773C27.9492 12.2773 28.6465 11.6933 28.6465 10.6226C28.6465 9.63233 27.9814 8.96729 26.9912 8.96729ZM18.0322 19.6445C17.8916 19.0869 17.6924 18.3256 17.4717 17.4843C16.9785 15.6069 16.3809 13.3291 16.1006 12.018H16.0684C15.7275 13.9165 14.8672 17.1293 14.1855 19.6445H18.0322ZM12.2373 27.1411L13.5195 22.2734H18.7129L20.0439 27.1577C20.0771 27.2709 20.1582 27.3037 20.2881 27.3037H22.9824C23.1113 27.3037 23.1445 27.2221 23.1113 27.0927L17.9502 9.58399C17.918 9.4541 17.8691 9.42188 17.7559 9.42188H14.3477C14.2666 9.42188 14.2178 9.4707 14.2178 9.58399C14.1855 10.3794 14.1367 10.6387 14.0557 10.9306L9.44629 27.06C9.41309 27.2548 9.44629 27.3037 9.6084 27.3037H11.9941C12.1562 27.3037 12.2051 27.271 12.2373 27.1411Z" fill="#FF7F18"/>
</svg>
