<svg width="1920" height="183" viewBox="0 0 1920 183" fill="none" xmlns="http://www.w3.org/2000/svg">
<g opacity="0.15">
<path d="M-240.45 145H-157.65V117.55H-205.05V40H-240.45V145ZM-105.572 146.5C-77.6719 146.5 -57.8719 128.8 -57.8719 103.9C-57.8719 79 -77.6719 61.45 -105.572 61.45C-133.322 61.45 -153.272 79 -153.272 103.9C-153.272 128.8 -133.322 146.5 -105.572 146.5ZM-105.572 120.1C-113.072 120.1 -118.922 114.55 -118.922 103.9C-118.922 93.25 -113.072 87.85 -105.572 87.85C-98.0719 87.85 -92.2219 93.25 -92.2219 103.9C-92.2219 114.55 -98.0719 120.1 -105.572 120.1ZM-3.16172 146.5C16.7883 146.5 31.7883 137.35 37.1883 122.2L10.9383 109.3C7.48828 116.95 2.53829 120.1 -3.31172 120.1C-10.9617 120.1 -17.2617 114.7 -17.2617 103.9C-17.2617 93.25 -10.9617 87.85 -3.31172 87.85C2.53829 87.85 7.48828 91 10.9383 98.65L37.1883 85.75C31.7883 70.6 16.7883 61.45 -3.16172 61.45C-31.5117 61.45 -51.6117 79 -51.6117 103.9C-51.6117 128.95 -31.5117 146.5 -3.16172 146.5ZM87.641 146.5C115.541 146.5 135.341 128.8 135.341 103.9C135.341 79 115.541 61.45 87.641 61.45C59.891 61.45 39.941 79 39.941 103.9C39.941 128.8 59.891 146.5 87.641 146.5ZM87.641 120.1C80.141 120.1 74.291 114.55 74.291 103.9C74.291 93.25 80.141 87.85 87.641 87.85C95.141 87.85 100.991 93.25 100.991 103.9C100.991 114.55 95.141 120.1 87.641 120.1Z" fill="url(#paint0_linear_68_101)"/>
<path d="M147.001 145H182.401V40H147.001V145ZM222.243 145H257.643V67.45H288.393V40H191.493V67.45H222.243V145Z" fill="#535353"/>
</g>
<g opacity="0.15">
<path d="M358.55 145H441.35V117.55H393.95V40H358.55V145ZM493.428 146.5C521.328 146.5 541.128 128.8 541.128 103.9C541.128 79 521.328 61.45 493.428 61.45C465.678 61.45 445.728 79 445.728 103.9C445.728 128.8 465.678 146.5 493.428 146.5ZM493.428 120.1C485.928 120.1 480.078 114.55 480.078 103.9C480.078 93.25 485.928 87.85 493.428 87.85C500.928 87.85 506.778 93.25 506.778 103.9C506.778 114.55 500.928 120.1 493.428 120.1ZM595.838 146.5C615.788 146.5 630.788 137.35 636.188 122.2L609.938 109.3C606.488 116.95 601.538 120.1 595.688 120.1C588.038 120.1 581.738 114.7 581.738 103.9C581.738 93.25 588.038 87.85 595.688 87.85C601.538 87.85 606.488 91 609.938 98.65L636.188 85.75C630.788 70.6 615.788 61.45 595.838 61.45C567.488 61.45 547.388 79 547.388 103.9C547.388 128.95 567.488 146.5 595.838 146.5ZM686.641 146.5C714.541 146.5 734.341 128.8 734.341 103.9C734.341 79 714.541 61.45 686.641 61.45C658.891 61.45 638.941 79 638.941 103.9C638.941 128.8 658.891 146.5 686.641 146.5ZM686.641 120.1C679.141 120.1 673.291 114.55 673.291 103.9C673.291 93.25 679.141 87.85 686.641 87.85C694.141 87.85 699.991 93.25 699.991 103.9C699.991 114.55 694.141 120.1 686.641 120.1Z" fill="url(#paint1_linear_68_101)"/>
<path d="M746.001 145H781.401V40H746.001V145ZM821.243 145H856.643V67.45H887.393V40H790.493V67.45H821.243V145Z" fill="#535353"/>
</g>
<g opacity="0.15">
<path d="M957.55 145H1040.35V117.55H992.95V40H957.55V145ZM1092.43 146.5C1120.33 146.5 1140.13 128.8 1140.13 103.9C1140.13 79 1120.33 61.45 1092.43 61.45C1064.68 61.45 1044.73 79 1044.73 103.9C1044.73 128.8 1064.68 146.5 1092.43 146.5ZM1092.43 120.1C1084.93 120.1 1079.08 114.55 1079.08 103.9C1079.08 93.25 1084.93 87.85 1092.43 87.85C1099.93 87.85 1105.78 93.25 1105.78 103.9C1105.78 114.55 1099.93 120.1 1092.43 120.1ZM1194.84 146.5C1214.79 146.5 1229.79 137.35 1235.19 122.2L1208.94 109.3C1205.49 116.95 1200.54 120.1 1194.69 120.1C1187.04 120.1 1180.74 114.7 1180.74 103.9C1180.74 93.25 1187.04 87.85 1194.69 87.85C1200.54 87.85 1205.49 91 1208.94 98.65L1235.19 85.75C1229.79 70.6 1214.79 61.45 1194.84 61.45C1166.49 61.45 1146.39 79 1146.39 103.9C1146.39 128.95 1166.49 146.5 1194.84 146.5ZM1285.64 146.5C1313.54 146.5 1333.34 128.8 1333.34 103.9C1333.34 79 1313.54 61.45 1285.64 61.45C1257.89 61.45 1237.94 79 1237.94 103.9C1237.94 128.8 1257.89 146.5 1285.64 146.5ZM1285.64 120.1C1278.14 120.1 1272.29 114.55 1272.29 103.9C1272.29 93.25 1278.14 87.85 1285.64 87.85C1293.14 87.85 1298.99 93.25 1298.99 103.9C1298.99 114.55 1293.14 120.1 1285.64 120.1Z" fill="url(#paint2_linear_68_101)"/>
<path d="M1345 145H1380.4V40H1345V145ZM1420.24 145H1455.64V67.45H1486.39V40H1389.49V67.45H1420.24V145Z" fill="#535353"/>
</g>
<g opacity="0.15">
<path d="M1556.55 145H1639.35V117.55H1591.95V40H1556.55V145ZM1691.43 146.5C1719.33 146.5 1739.13 128.8 1739.13 103.9C1739.13 79 1719.33 61.45 1691.43 61.45C1663.68 61.45 1643.73 79 1643.73 103.9C1643.73 128.8 1663.68 146.5 1691.43 146.5ZM1691.43 120.1C1683.93 120.1 1678.08 114.55 1678.08 103.9C1678.08 93.25 1683.93 87.85 1691.43 87.85C1698.93 87.85 1704.78 93.25 1704.78 103.9C1704.78 114.55 1698.93 120.1 1691.43 120.1ZM1793.84 146.5C1813.79 146.5 1828.79 137.35 1834.19 122.2L1807.94 109.3C1804.49 116.95 1799.54 120.1 1793.69 120.1C1786.04 120.1 1779.74 114.7 1779.74 103.9C1779.74 93.25 1786.04 87.85 1793.69 87.85C1799.54 87.85 1804.49 91 1807.94 98.65L1834.19 85.75C1828.79 70.6 1813.79 61.45 1793.84 61.45C1765.49 61.45 1745.39 79 1745.39 103.9C1745.39 128.95 1765.49 146.5 1793.84 146.5ZM1884.64 146.5C1912.54 146.5 1932.34 128.8 1932.34 103.9C1932.34 79 1912.54 61.45 1884.64 61.45C1856.89 61.45 1836.94 79 1836.94 103.9C1836.94 128.8 1856.89 146.5 1884.64 146.5ZM1884.64 120.1C1877.14 120.1 1871.29 114.55 1871.29 103.9C1871.29 93.25 1877.14 87.85 1884.64 87.85C1892.14 87.85 1897.99 93.25 1897.99 103.9C1897.99 114.55 1892.14 120.1 1884.64 120.1Z" fill="url(#paint3_linear_68_101)"/>
<path d="M1944 145H1979.4V40H1944V145ZM2019.24 145H2054.64V67.45H2085.39V40H1988.49V67.45H2019.24V145Z" fill="#535353"/>
</g>
<defs>
<linearGradient id="paint0_linear_68_101" x1="20.5" y1="2.06775e-07" x2="20.5" y2="183" gradientUnits="userSpaceOnUse">
<stop stop-color="#B670FF"/>
<stop offset="1" stop-color="#9129FE"/>
</linearGradient>
<linearGradient id="paint1_linear_68_101" x1="619.5" y1="2.06775e-07" x2="619.5" y2="183" gradientUnits="userSpaceOnUse">
<stop stop-color="#B670FF"/>
<stop offset="1" stop-color="#9129FE"/>
</linearGradient>
<linearGradient id="paint2_linear_68_101" x1="1218.5" y1="2.06775e-07" x2="1218.5" y2="183" gradientUnits="userSpaceOnUse">
<stop stop-color="#B670FF"/>
<stop offset="1" stop-color="#9129FE"/>
</linearGradient>
<linearGradient id="paint3_linear_68_101" x1="1817.5" y1="2.06775e-07" x2="1817.5" y2="183" gradientUnits="userSpaceOnUse">
<stop stop-color="#B670FF"/>
<stop offset="1" stop-color="#9129FE"/>
</linearGradient>
</defs>
</svg>
