<svg width="937" height="539" viewBox="0 0 937 539" fill="none" xmlns="http://www.w3.org/2000/svg">
<path d="M20 17L24.4903 29.0922L39.0211 29.0922L27.2654 36.5656L31.7557 48.6578L20 41.1844L8.2443 48.6578L12.7346 36.5656L0.97887 29.0922L15.5097 29.0922L20 17Z" fill="#660C75" fill-opacity="0.1"/>
<path d="M256 66L260.49 78.0922L275.021 78.0922L263.265 85.5656L267.756 97.6578L256 90.1844L244.244 97.6578L248.735 85.5656L236.979 78.0922L251.51 78.0922L256 66Z" fill="#660C75" fill-opacity="0.1"/>
<path d="M652 34L656.49 46.0922L671.021 46.0922L659.265 53.5656L663.756 65.6578L652 58.1844L640.244 65.6578L644.735 53.5656L632.979 46.0922L647.51 46.0922L652 34Z" fill="#660C75" fill-opacity="0.1"/>
<path d="M592 219L596.49 231.092L611.021 231.092L599.265 238.566L603.756 250.658L592 243.184L580.244 250.658L584.735 238.566L572.979 231.092L587.51 231.092L592 219Z" fill="#660C75" fill-opacity="0.1"/>
<path d="M917 0L921.49 12.0922L936.021 12.0922L924.265 19.5656L928.756 31.6578L917 24.1844L905.244 31.6578L909.735 19.5656L897.979 12.0922L912.51 12.0922L917 0Z" fill="#660C75" fill-opacity="0.1"/>
<path d="M877 504L881.49 516.092L896.021 516.092L884.265 523.566L888.756 535.658L877 528.184L865.244 535.658L869.735 523.566L857.979 516.092L872.51 516.092L877 504Z" fill="#660C75" fill-opacity="0.1"/>
<path d="M634 460L638.49 472.092L653.021 472.092L641.265 479.566L645.756 491.658L634 484.184L622.244 491.658L626.735 479.566L614.979 472.092L629.51 472.092L634 460Z" fill="#660C75" fill-opacity="0.1"/>
<path d="M297 477L301.49 489.092L316.021 489.092L304.265 496.566L308.756 508.658L297 501.184L285.244 508.658L289.735 496.566L277.979 489.092L292.51 489.092L297 477Z" fill="#660C75" fill-opacity="0.1"/>
</svg>
