<svg width="60" height="60" viewBox="0 0 60 60" fill="none" xmlns="http://www.w3.org/2000/svg">
<path d="M32.6319 12.161C32.237 11.3414 31.4026 10.8198 30.4861 10.8198C29.5697 10.8198 28.7426 11.3414 28.3403 12.161L23.5495 22.0183L12.8502 23.5979C11.9561 23.732 11.211 24.3579 10.9353 25.2147C10.6596 26.0715 10.8831 27.0178 11.5239 27.6511L19.2876 35.3328L17.4547 46.1886C17.3057 47.0827 17.6782 47.9917 18.4159 48.5207C19.1535 49.0497 20.1295 49.1168 20.9342 48.6921L30.4936 43.5883L40.0529 48.6921C40.8576 49.1168 41.8336 49.0572 42.5713 48.5207C43.3089 47.9842 43.6814 47.0827 43.5324 46.1886L41.6921 35.3328L49.4558 27.6511C50.0965 27.0178 50.3275 26.0715 50.0444 25.2147C49.7612 24.3579 49.0236 23.732 48.1295 23.5979L37.4228 22.0183L32.6319 12.161Z" fill="url(#paint0_linear_308_50)"/>
<defs>
<linearGradient id="paint0_linear_308_50" x1="30.4915" y1="10.8198" x2="30.4915" y2="48.972" gradientUnits="userSpaceOnUse">
<stop stop-color="#B670FF"/>
<stop offset="1" stop-color="#9129FE"/>
</linearGradient>
</defs>
</svg>
