<svg width="60" height="60" viewBox="0 0 60 60" fill="none" xmlns="http://www.w3.org/2000/svg">
<path d="M39.4333 44.8883C40.5064 41.3227 42.7307 38.2825 44.9326 35.2534C45.5138 34.4598 46.095 33.6662 46.6539 32.8615C48.867 29.6759 50.1636 25.8197 50.1636 21.6506C50.1636 10.775 41.3558 1.96729 30.4915 1.96729C19.6271 1.96729 10.8193 10.775 10.8193 21.6394C10.8193 25.8086 12.1159 29.6759 14.329 32.8503C14.8879 33.6551 15.4691 34.4487 16.0503 35.2422C18.2634 38.2713 20.4877 41.3227 21.5496 44.8771H39.4333V44.8883ZM30.4915 59.1953C35.4319 59.1953 39.4333 55.1938 39.4333 50.2534V48.465H21.5496V50.2534C21.5496 55.1938 25.5511 59.1953 30.4915 59.1953ZM21.5496 21.6394C21.5496 22.623 20.7448 23.4278 19.7612 23.4278C18.7776 23.4278 17.9728 22.623 17.9728 21.6394C17.9728 14.7206 23.5727 9.12079 30.4915 9.12079C31.4751 9.12079 32.2798 9.92556 32.2798 10.9092C32.2798 11.8928 31.4751 12.6975 30.4915 12.6975C25.5511 12.6975 21.5496 16.699 21.5496 21.6394Z" fill="url(#paint0_linear_308_134)"/>
<defs>
<linearGradient id="paint0_linear_308_134" x1="30.4915" y1="1.96729" x2="30.4915" y2="59.1953" gradientUnits="userSpaceOnUse">
<stop stop-color="#B670FF"/>
<stop offset="1" stop-color="#9129FE"/>
</linearGradient>
</defs>
</svg>
