<svg width="60" height="60" viewBox="0 0 60 60" fill="none" xmlns="http://www.w3.org/2000/svg">
<path d="M35.4095 18.1969H25.5734L21.931 12.7332C21.3854 11.911 21.9694 10.8198 22.953 10.8198H38.0299C39.0135 10.8198 39.5975 11.911 39.0519 12.7332L35.4095 18.1969ZM25.5734 20.6559H35.4095C35.7015 20.848 36.0319 21.0632 36.4085 21.3014C40.7655 24.0908 50.1636 30.1 50.1636 42.787C50.1636 46.8598 46.8593 50.1641 42.7865 50.1641H18.1964C14.1236 50.1641 10.8193 46.8598 10.8193 42.787C10.8193 30.1 20.2174 24.0908 24.5745 21.3014C24.9433 21.0632 25.2814 20.848 25.5734 20.6559ZM32.036 28.0329C32.036 27.18 31.3444 26.4884 30.4915 26.4884C29.6385 26.4884 28.9469 27.18 28.9469 28.0329V28.494C28.5166 28.5862 28.1093 28.7169 27.7251 28.8859C26.5724 29.4085 25.5811 30.3767 25.3352 31.7829C25.1969 32.5667 25.2737 33.3198 25.5965 34.0114C25.9192 34.6877 26.4187 35.1641 26.9259 35.5099C27.8173 36.117 28.993 36.4704 29.8921 36.7394L30.0611 36.7932C31.1293 37.1159 31.8593 37.3618 32.3127 37.6923C32.5048 37.8306 32.5739 37.9382 32.6047 38.0073C32.6277 38.0688 32.6738 38.2071 32.6201 38.5222C32.5739 38.7911 32.4279 39.014 32.0053 39.1984C31.5365 39.3982 30.7758 39.4981 29.7922 39.3444C29.3311 39.2676 28.5089 38.9909 27.7789 38.7373C27.6098 38.6759 27.4484 38.6221 27.2947 38.576C26.4879 38.307 25.6195 38.745 25.3506 39.5519C25.0816 40.3588 25.5196 41.2271 26.3265 41.4961C26.4187 41.5268 26.534 41.5652 26.6646 41.6113C27.2717 41.8188 28.2246 42.1415 28.9546 42.3106V42.787C28.9546 43.64 29.6462 44.3316 30.4992 44.3316C31.3521 44.3316 32.0437 43.64 32.0437 42.787V42.3644C32.4587 42.2875 32.8506 42.1723 33.2271 42.0109C34.4336 41.4961 35.4095 40.4971 35.6554 39.037C35.7937 38.2379 35.7322 37.4771 35.4249 36.7778C35.1252 36.0862 34.6411 35.579 34.1262 35.2025C33.1887 34.5263 31.9515 34.1497 31.0217 33.8654L30.9602 33.85C29.869 33.5196 29.1313 33.2891 28.6626 32.974C28.4628 32.8357 28.4013 32.7435 28.3859 32.7051C28.3706 32.682 28.3321 32.5821 28.3783 32.3208C28.4013 32.1748 28.5243 31.9213 29.0084 31.6984C29.5002 31.4756 30.2686 31.3526 31.2061 31.4986C31.5365 31.5524 32.5816 31.7522 32.8736 31.829C33.6959 32.0442 34.5335 31.5601 34.7563 30.7379C34.9792 29.9156 34.4874 29.078 33.6651 28.8552C33.327 28.763 32.5586 28.6093 32.0514 28.5171V28.0329H32.036Z" fill="url(#paint0_linear_308_194)"/>
<defs>
<linearGradient id="paint0_linear_308_194" x1="30.4915" y1="10.8198" x2="30.4915" y2="50.1641" gradientUnits="userSpaceOnUse">
<stop stop-color="#B670FF"/>
<stop offset="1" stop-color="#9129FE"/>
</linearGradient>
</defs>
</svg>
