<svg width="60" height="61" viewBox="0 0 60 61" fill="none" xmlns="http://www.w3.org/2000/svg">
<path d="M24.9587 15.9917H36.0243C36.3624 15.9917 36.639 16.2684 36.639 16.6065V19.6803H24.3439V16.6065C24.3439 16.2684 24.6206 15.9917 24.9587 15.9917ZM20.6554 16.6065V19.6803H15.7374C13.0248 19.6803 10.8193 21.8857 10.8193 24.5983V31.9754H25.5734H35.4095H50.1636V24.5983C50.1636 21.8857 47.9582 19.6803 45.2456 19.6803H40.3275V16.6065C40.3275 14.232 38.3987 12.3032 36.0243 12.3032H24.9587C22.5842 12.3032 20.6554 14.232 20.6554 16.6065ZM50.1636 34.4344H35.4095V36.8934C35.4095 38.2535 34.3106 39.3524 32.9505 39.3524H28.0324C26.6723 39.3524 25.5734 38.2535 25.5734 36.8934V34.4344H10.8193V44.2704C10.8193 46.983 13.0248 49.1885 15.7374 49.1885H45.2456C47.9582 49.1885 50.1636 46.983 50.1636 44.2704V34.4344Z" fill="url(#paint0_linear_308_153)"/>
<defs>
<linearGradient id="paint0_linear_308_153" x1="30.4915" y1="12.3032" x2="30.4915" y2="49.1885" gradientUnits="userSpaceOnUse">
<stop stop-color="#B670FF"/>
<stop offset="1" stop-color="#9129FE"/>
</linearGradient>
</defs>
</svg>
