<svg width="15" height="15" viewBox="0 0 15 15" fill="none" xmlns="http://www.w3.org/2000/svg">
<path d="M6.84442 13.1556C7.20702 13.5182 7.79588 13.5182 8.15848 13.1556L13.728 7.58602C14.0907 7.22342 14.0907 6.63455 13.728 6.27195C13.3654 5.90935 12.7766 5.90935 12.414 6.27195L7.5 11.1859L2.58602 6.27485C2.22342 5.91225 1.63455 5.91225 1.27195 6.27485C0.90935 6.63745 0.90935 7.22632 1.27195 7.58892L6.84151 13.1585L6.84442 13.1556Z" fill="white"/>
<path opacity="0.5" d="M6.84442 8.15558C7.20702 8.51819 7.79588 8.51819 8.15848 8.15558L13.728 2.58602C14.0907 2.22342 14.0907 1.63455 13.728 1.27195C13.3654 0.90935 12.7766 0.90935 12.414 1.27195L7.5 6.18593L2.58602 1.27485C2.22342 0.91225 1.63455 0.91225 1.27195 1.27485C0.90935 1.63745 0.90935 2.22632 1.27195 2.58892L6.84151 8.15848L6.84442 8.15558Z" fill="white"/>
</svg>
