<svg width="38" height="27" viewBox="0 0 38 27" fill="none" xmlns="http://www.w3.org/2000/svg">
<path d="M19.0005 0C18.5195 0 18.0445 0.0831229 17.5933 0.243432L0.939016 6.25797C0.374967 6.46578 0.000913894 7.00014 0.000913894 7.59982C0.000913894 8.19949 0.374967 8.73385 0.939016 8.94166L4.37675 10.1826C3.40302 11.7144 2.85085 13.5253 2.85085 15.4312V17.0996C2.85085 18.7858 2.20961 20.5254 1.52681 21.897C1.14089 22.6688 0.701522 23.4288 0.190909 24.1294C0.000913896 24.3847 -0.0525223 24.7172 0.0543501 25.02C0.161223 25.3228 0.410592 25.5484 0.719334 25.6256L4.51924 26.5756C4.76861 26.6409 5.03579 26.5934 5.25548 26.4569C5.47516 26.3203 5.62953 26.0947 5.67703 25.8394C6.18764 23.2982 5.93233 21.0182 5.55234 19.3855C5.36235 18.5424 5.10704 17.6814 4.7508 16.8918V15.4312C4.7508 13.6381 5.35641 11.946 6.40732 10.5922C7.17324 9.67195 8.16478 8.92978 9.3285 8.47261L18.6502 4.80926C19.137 4.61926 19.6892 4.85676 19.8792 5.34362C20.0692 5.83048 19.8317 6.38266 19.3448 6.57265L10.0232 10.236C9.28694 10.5269 8.63977 10.9722 8.11134 11.5185L17.5874 14.9384C18.0386 15.0987 18.5136 15.1818 18.9945 15.1818C19.4754 15.1818 19.9504 15.0987 20.4017 14.9384L37.0619 8.94166C37.6259 8.73979 38 8.19949 38 7.59982C38 7.00014 37.6259 6.46578 37.0619 6.25797L20.4076 0.243432C19.9564 0.0831229 19.4814 0 19.0005 0ZM7.60073 22.3245C7.60073 24.4203 12.7069 26.5994 19.0005 26.5994C25.2941 26.5994 30.4002 24.4203 30.4002 22.3245L29.4918 13.6915L21.0488 16.7433C20.3898 16.9808 19.6951 17.0996 19.0005 17.0996C18.3058 17.0996 17.6052 16.9808 16.9521 16.7433L8.50915 13.6915L7.60073 22.3245Z" fill="url(#paint0_linear_212_995)"/>
<defs>
<linearGradient id="paint0_linear_212_995" x1="19" y1="3.00611e-08" x2="19" y2="26.6046" gradientUnits="userSpaceOnUse">
<stop stop-color="#B670FF"/>
<stop offset="1" stop-color="#9129FE"/>
</linearGradient>
</defs>
</svg>
