<svg width="49" height="13" viewBox="0 0 49 13" fill="none" xmlns="http://www.w3.org/2000/svg">
<path d="M5.66756 12.8529C9.53185 12.8529 11.318 10.628 11.318 7.57567V0.367751H7.79719V7.46535C7.79719 8.64215 7.07586 9.57991 5.66756 9.57991C4.24208 9.57991 3.52076 8.64215 3.52076 7.46535V0.367751H0V7.59406C0 10.628 1.80331 12.8529 5.66756 12.8529ZM16.6352 12.6322V0.367751H13.166V12.6322H16.6352ZM19.702 13L23.7723 0H21.6255L17.5552 13H19.702ZM30.3725 12.8529C34.2368 12.8529 36.0229 10.628 36.0229 7.57567V0.367751H32.5022V7.46535C32.5022 8.64215 31.7808 9.57991 30.3725 9.57991C28.9471 9.57991 28.2257 8.64215 28.2257 7.46535V0.367751H24.705V7.59406C24.705 10.628 26.5083 12.8529 30.3725 12.8529ZM49 12.6322L45.1701 6.32532L48.7424 0.367751H44.6377L42.8172 3.86139L40.9624 0.367751H36.892L40.4643 6.34371L36.6344 12.6322H40.7219L42.8172 8.88119L44.9125 12.6322H49Z" fill="black"/>
</svg>
