<svg width="39" height="41" viewBox="0 0 39 41" fill="none" xmlns="http://www.w3.org/2000/svg">
<g clip-path="url(#clip0_210_440)">
<path d="M1.80038 13.2133C2.13725 13.2133 2.41032 12.9425 2.41032 12.6085V10.1893C2.41032 9.85524 2.13725 9.58447 1.80038 9.58447C1.46351 9.58447 1.19043 9.85524 1.19043 10.1893V12.6085C1.19035 12.9425 1.46351 13.2133 1.80038 13.2133Z" fill="#95A7C1"/>
<path d="M1.19043 24.7042C1.19043 25.0382 1.46351 25.309 1.80038 25.309C2.13724 25.309 2.41032 25.0382 2.41032 24.7042V22.285C2.41032 21.9509 2.13724 21.6802 1.80038 21.6802C1.46351 21.6802 1.19043 21.9509 1.19043 22.285C1.19043 22.285 1.19043 24.7042 1.19043 24.7042Z" fill="#95A7C1"/>
<path d="M1.19043 18.6563C1.19043 18.9903 1.46351 19.2611 1.80038 19.2611C2.13724 19.2611 2.41032 18.9903 2.41032 18.6563V16.2371C2.41032 15.9031 2.13724 15.6323 1.80038 15.6323C1.46351 15.6323 1.19043 15.9031 1.19043 16.2371V18.6563Z" fill="#95A7C1"/>
<path d="M1.19043 30.7525C1.19043 31.0865 1.46351 31.3573 1.80038 31.3573C2.13724 31.3573 2.41032 31.0865 2.41032 30.7525V28.3333C2.41032 27.9993 2.13724 27.7285 1.80038 27.7285C1.46351 27.7285 1.19043 27.9993 1.19043 28.3333V30.7525Z" fill="#95A7C1"/>
<path d="M36.5908 30.7525C36.5908 31.0865 36.8639 31.3573 37.2008 31.3573C37.5376 31.3573 37.8107 31.0865 37.8107 30.7525V28.3333C37.8107 27.9993 37.5376 27.7285 37.2008 27.7285C36.8639 27.7285 36.5908 27.9993 36.5908 28.3333V30.7525Z" fill="#95A7C1"/>
<path d="M36.5908 24.7042C36.5908 25.0382 36.8639 25.309 37.2008 25.309C37.5376 25.309 37.8107 25.0382 37.8107 24.7042V22.285C37.8107 21.9509 37.5376 21.6802 37.2008 21.6802C36.8639 21.6802 36.5908 21.9509 36.5908 22.285V24.7042Z" fill="#95A7C1"/>
<path d="M37.2008 13.2133C37.5376 13.2133 37.8107 12.9425 37.8107 12.6085V10.1893C37.8107 9.85524 37.5376 9.58447 37.2008 9.58447C36.8639 9.58447 36.5908 9.85524 36.5908 10.1893V12.6085C36.5908 12.9425 36.8639 13.2133 37.2008 13.2133Z" fill="#95A7C1"/>
<path d="M36.5908 18.6563C36.5908 18.9903 36.8639 19.2611 37.2008 19.2611C37.5376 19.2611 37.8107 18.9903 37.8107 18.6563V16.2371C37.8107 15.9031 37.5376 15.6323 37.2008 15.6323C36.8639 15.6323 36.5908 15.9031 36.5908 16.2371V18.6563Z" fill="#95A7C1"/>
<path d="M29.3574 38.4897H26.9176C26.5807 38.4897 26.3076 38.7605 26.3076 39.0945C26.3076 39.4286 26.5807 39.6993 26.9176 39.6993H29.3574C29.6943 39.6993 29.9674 39.4286 29.9674 39.0945C29.9674 38.7605 29.6942 38.4897 29.3574 38.4897Z" fill="#95A7C1"/>
<path d="M17.1582 38.4897H14.7183C14.3815 38.4897 14.1084 38.7605 14.1084 39.0945C14.1084 39.4286 14.3815 39.6993 14.7183 39.6993H17.1582C17.4951 39.6993 17.7682 39.4286 17.7682 39.0945C17.7682 38.7605 17.495 38.4897 17.1582 38.4897Z" fill="#95A7C1"/>
<path d="M11.0586 38.4897H8.61874C8.28187 38.4897 8.00879 38.7605 8.00879 39.0945C8.00879 39.4286 8.28187 39.6993 8.61874 39.6993H11.0586C11.3955 39.6993 11.6686 39.4286 11.6686 39.0945C11.6686 38.7605 11.3955 38.4897 11.0586 38.4897Z" fill="#95A7C1"/>
<path d="M4.95886 38.4897H3.67139C3.62023 38.4897 3.57081 38.4967 3.5232 38.5084V37.7893C3.5232 37.5666 3.34115 37.386 3.11654 37.386H1.9497C2.21418 37.3199 2.4102 37.0831 2.4102 36.8004V34.3812C2.4102 34.0471 2.13712 33.7764 1.80025 33.7764C1.46339 33.7764 1.19031 34.0471 1.19031 34.3812V36.8004C1.19031 37.0831 1.38633 37.3199 1.65081 37.386H0.483806C0.259201 37.386 0.0771484 37.5666 0.0771484 37.7893V40.3997C0.0771484 40.6224 0.259201 40.8029 0.483806 40.8029H3.11654C3.34115 40.8029 3.5232 40.6224 3.5232 40.3997V39.6806C3.57073 39.6923 3.62007 39.6993 3.67139 39.6993H4.95886C5.29573 39.6993 5.56881 39.4285 5.56881 39.0945C5.56881 38.7604 5.29581 38.4897 4.95886 38.4897Z" fill="#95A7C1"/>
<path d="M23.2578 38.4897H20.818C20.4811 38.4897 20.208 38.7605 20.208 39.0945C20.208 39.4286 20.4811 39.6993 20.818 39.6993H23.2578C23.5947 39.6993 23.8677 39.4286 23.8677 39.0945C23.8678 38.7605 23.5947 38.4897 23.2578 38.4897Z" fill="#95A7C1"/>
<path d="M4.95878 1.8277H3.67131C3.62015 1.8277 3.57073 1.83467 3.52312 1.84641V1.12734C3.5232 0.904711 3.34115 0.724121 3.11654 0.724121H0.483727C0.259122 0.724121 0.0771484 0.904711 0.0771484 1.12734V3.73779C0.0771484 3.96049 0.259201 4.141 0.483806 4.141H1.19023V6.56022C1.19023 6.89423 1.46331 7.165 1.80018 7.165C2.13704 7.165 2.41012 6.89423 2.41012 6.56022V4.141H3.11654C3.34115 4.141 3.5232 3.96049 3.5232 3.73779V3.01864C3.57073 3.03038 3.62007 3.03735 3.67138 3.03735H4.95886C5.29573 3.03735 5.5688 2.76658 5.5688 2.43256C5.5688 2.09854 5.29573 1.8277 4.95878 1.8277Z" fill="#95A7C1"/>
<path d="M11.0586 1.82764H8.61874C8.28187 1.82764 8.00879 2.0984 8.00879 2.43242C8.00879 2.76644 8.28187 3.03721 8.61874 3.03721H11.0586C11.3955 3.03721 11.6686 2.76644 11.6686 2.43242C11.6686 2.0984 11.3955 1.82764 11.0586 1.82764Z" fill="#95A7C1"/>
<path d="M17.1582 1.82764H14.7183C14.3815 1.82764 14.1084 2.0984 14.1084 2.43242C14.1084 2.76644 14.3815 3.03721 14.7183 3.03721H17.1582C17.4951 3.03721 17.7682 2.76644 17.7682 2.43242C17.7682 2.0984 17.495 1.82764 17.1582 1.82764Z" fill="#95A7C1"/>
<path d="M29.3574 1.82764H26.9176C26.5807 1.82764 26.3076 2.0984 26.3076 2.43242C26.3076 2.76644 26.5807 3.03721 26.9176 3.03721H29.3574C29.6943 3.03721 29.9674 2.76644 29.9674 2.43242C29.9674 2.0984 29.6942 1.82764 29.3574 1.82764Z" fill="#95A7C1"/>
<path d="M23.2578 1.82764H20.818C20.4811 1.82764 20.208 2.0984 20.208 2.43242C20.208 2.76644 20.4811 3.03721 20.818 3.03721H23.2578C23.5947 3.03721 23.8677 2.76644 23.8677 2.43242C23.8677 2.0984 23.5947 1.82764 23.2578 1.82764Z" fill="#95A7C1"/>
<path d="M38.5166 0.724121H35.8838C35.6592 0.724121 35.4772 0.904711 35.4772 1.12734V1.82879C35.4705 1.82856 35.4638 1.82778 35.4571 1.82778H33.0172C32.6803 1.82778 32.4072 2.09854 32.4072 2.43256C32.4072 2.76658 32.6803 3.03735 33.0172 3.03735H35.457C35.4638 3.03735 35.4704 3.03656 35.4771 3.03633V3.73779C35.4771 3.96049 35.6591 4.141 35.8837 4.141H36.5902V6.56022C36.5902 6.89423 36.8632 7.165 37.2001 7.165C37.537 7.165 37.8101 6.89423 37.8101 6.56022V4.141H38.5165C38.7411 4.141 38.9231 3.96049 38.9231 3.73779V1.12734C38.9232 0.904711 38.7412 0.724121 38.5166 0.724121Z" fill="#95A7C1"/>
<path d="M38.5165 37.386H37.3496C37.614 37.3199 37.8101 37.0831 37.8101 36.8004V34.3812C37.8101 34.0471 37.537 33.7764 37.2001 33.7764C36.8632 33.7764 36.5902 34.0471 36.5902 34.3812V36.8004C36.5902 37.0831 36.7862 37.3199 37.0507 37.386H35.8837C35.6591 37.386 35.4771 37.5666 35.4771 37.7893V38.4907C35.4704 38.4905 35.4637 38.4897 35.457 38.4897H33.0172C32.6803 38.4897 32.4072 38.7605 32.4072 39.0945C32.4072 39.4285 32.6803 39.6993 33.0172 39.6993H35.457C35.4638 39.6993 35.4704 39.6985 35.4771 39.6983V40.3997C35.4771 40.6224 35.6591 40.8029 35.8837 40.8029H38.5165C38.7411 40.8029 38.9231 40.6224 38.9231 40.3997V37.7892C38.9231 37.5666 38.7411 37.386 38.5165 37.386Z" fill="#95A7C1"/>
<path d="M19.6075 7.82764H19.3933H9.07853C8.85393 7.82764 8.67188 8.00815 8.67188 8.23085V13.9754C8.67188 14.1981 8.85393 14.3787 9.07853 14.3787H10.8865C11.1111 14.3787 11.2932 14.1981 11.2932 13.9754V11.1031H16.2417V31.3049H12.5522C12.3276 31.3049 12.1456 31.4854 12.1456 31.7081V33.2962C12.1456 33.5189 12.3276 33.6994 12.5522 33.6994H19.3934H19.6075H26.4486C26.6732 33.6994 26.8553 33.5189 26.8553 33.2962V31.7082C26.8553 31.4855 26.6732 31.305 26.4486 31.305H22.7592V11.1031H27.7077V13.9754C27.7077 14.1981 27.8897 14.3786 28.1144 14.3786H29.9223C30.1469 14.3786 30.329 14.1981 30.329 13.9754V8.23085C30.329 8.00815 30.1469 7.82764 29.9223 7.82764C29.9222 7.82764 19.6075 7.82764 19.6075 7.82764Z" fill="#C299FF"/>
<path d="M30.3292 8.23134V13.9753C30.3292 14.198 30.1472 14.3785 29.9226 14.3785H28.1137C27.8891 14.3785 27.7071 14.198 27.7071 13.9753V11.1029H22.7591V31.3049H26.4481C26.6727 31.3049 26.8548 31.4854 26.8548 31.7081V33.2958C26.8548 33.5185 26.6727 33.699 26.4481 33.699H19.5645V7.82812H29.9226C30.1472 7.82812 30.3292 8.00864 30.3292 8.23134Z" fill="#24D3CE"/>
<path d="M30.3292 8.23134V13.9753C30.3292 14.198 30.1472 14.3785 29.9226 14.3785H28.1137C27.8891 14.3785 27.7071 14.198 27.7071 13.9753V11.1029H22.7591V31.3049H26.4481C26.6727 31.3049 26.8548 31.4854 26.8548 31.7081V33.2958C26.8548 33.5185 26.6727 33.699 26.4481 33.699H19.5645V7.82812H29.9226C30.1472 7.82812 30.3292 8.00864 30.3292 8.23134Z" fill="#9747FF"/>
</g>
<defs>
<clipPath id="clip0_210_440">
<rect width="39" height="41" fill="white"/>
</clipPath>
</defs>
</svg>
