<svg width="44" height="45" viewBox="0 0 44 45" fill="none" xmlns="http://www.w3.org/2000/svg">
<path fill-rule="evenodd" clip-rule="evenodd" d="M32.5088 38.0054L32.3664 38.1018L32.3379 37.9319C32.1472 36.7969 31.153 31.3187 28.7109 24.5945L28.665 24.4684L28.7973 24.4471C30.1543 24.2292 31.4729 24.144 32.7064 24.144C36.8242 24.1442 39.9949 25.0939 40.494 25.2516L40.585 25.2803L40.5699 25.375C39.7315 30.6188 36.7278 35.147 32.5088 38.0054ZM22.0002 41.0063C17.7355 41.0062 13.804 39.5582 10.6641 37.1291C11.1942 36.0855 15.0471 29.1229 25.228 25.5682C25.235 25.5659 25.2425 25.5635 25.2495 25.561C27.8001 32.2294 28.882 37.8247 29.1796 39.5595C26.9696 40.4906 24.5443 41.0063 22.0002 41.0063ZM3.41406 22.3835C3.41406 22.2301 3.41773 22.077 3.4217 21.924C3.53292 21.9257 3.69624 21.9272 3.9092 21.9272C6.21455 21.9271 14.221 21.7352 22.471 19.2773C22.9712 20.2612 23.4494 21.2581 23.8917 22.2546C23.6847 22.3144 23.4781 22.3754 23.2736 22.4416C13.9851 25.4523 8.87801 33.421 8.09275 34.7222C5.18349 31.4339 3.41406 27.1128 3.41406 22.3835ZM14.0163 5.57031C14.6572 6.45473 17.8385 10.9093 20.8156 16.193C12.8253 18.2991 5.72957 18.4378 4.01743 18.4375C3.94777 18.4375 3.88757 18.4373 3.83594 18.437C5.06576 12.7485 8.89763 8.02032 14.0163 5.57031ZM21.9999 3.76074C26.687 3.76074 30.972 5.50919 34.2452 8.38778C33.7273 9.09685 30.9176 12.6198 24.6452 14.999C21.7439 9.67349 18.5645 5.26609 17.8086 4.24142C19.1564 3.92873 20.5587 3.76074 21.9999 3.76074ZM36.475 10.7168C38.984 13.8359 40.51 17.7779 40.5814 22.0697C39.7463 21.9003 36.2091 21.2369 31.9822 21.2368C30.6192 21.2368 29.1846 21.3064 27.7456 21.4836C27.6243 21.188 27.5014 20.8914 27.3746 20.593C27.0007 19.7135 26.5998 18.84 26.1826 17.9801C32.686 15.2923 35.8251 11.5603 36.475 10.7168ZM22 0.311523C9.86902 0.311677 0.000305547 10.1997 0 22.3549C0.000305547 34.5101 9.86902 44.3981 22 44.3983C34.131 44.3981 43.9997 34.5101 44 22.3549C43.9997 10.1997 34.131 0.311677 22 0.311523Z" fill="#C32361"/>
</svg>
