<svg width="60" height="61" viewBox="0 0 60 61" fill="none" xmlns="http://www.w3.org/2000/svg">
<g clip-path="url(#clip0_308_212)">
<path d="M34.4015 55.2296L34.3969 50.0382L22.7383 50.0382L22.7383 55.225C22.7383 57.2643 24.3865 58.9125 26.4258 58.9125L30.714 58.9172C32.7533 58.9172 34.4015 57.2689 34.4015 55.2296ZM34.5924 47.9337L34.8904 47.3749L39.5883 38.6543C40.2355 37.4483 40.2634 36.005 39.6488 34.7758L31.4729 18.3494C31.1237 17.6464 30.4067 17.1901 29.6245 17.1808L29.6198 31.4794C30.0528 31.633 30.4579 31.8798 30.8024 32.2243C32.0363 33.4582 32.0363 35.4602 30.8024 36.6941C29.5686 37.9279 27.5665 37.9279 26.3327 36.6941C25.0988 35.4602 25.0988 33.4582 26.3327 32.2243C26.6772 31.8798 27.0823 31.633 27.5153 31.4794L27.5153 17.1761C26.7284 17.1901 26.0114 17.6371 25.6669 18.3448L17.4863 34.7758C16.8763 36.0003 16.8996 37.4483 17.5468 38.6543L22.2447 47.3749L22.5427 47.9337L34.5924 47.9337Z" fill="url(#paint0_linear_308_212)"/>
<path d="M27.0547 6.9547V3.97561H30.0181V6.9547H27.0547ZM26.5608 0.5C24.9247 0.5 23.5973 1.83439 23.5973 3.47909V3.72735H16.2876C15.6455 2.40538 14.2935 1.49303 12.7315 1.49303C10.5521 1.49303 8.78027 3.27428 8.78027 5.46516C8.78027 7.65603 10.5521 9.43728 12.7315 9.43728C14.2935 9.43728 15.6455 8.52493 16.2876 7.20296H20.4178C16.7815 9.66071 14.312 13.7197 13.9971 18.3746H13.7193C12.0832 18.3746 10.7559 19.709 10.7559 21.3537V25.3258C10.7559 26.9705 12.0832 28.3049 13.7193 28.3049H17.6705C19.3066 28.3049 20.6339 26.9705 20.6339 25.3258V21.3537C20.6339 19.709 19.3066 18.3746 17.6705 18.3746H17.4668C17.831 14.2162 20.4611 10.7158 24.1036 9.12075C24.6345 9.90897 25.5359 10.4303 26.5608 10.4303H30.512C31.5368 10.4303 32.432 9.90897 32.9691 9.12075C36.6117 10.7158 39.2417 14.2162 39.606 18.3746H39.4022C37.7662 18.3746 36.4388 19.709 36.4388 21.3537V25.3258C36.4388 26.9705 37.7662 28.3049 39.4022 28.3049H43.3534C44.9895 28.3049 46.3169 26.9705 46.3169 25.3258V21.3537C46.3169 19.709 44.9895 18.3746 43.3534 18.3746H43.0756C42.7669 13.7197 40.2912 9.66071 36.6549 7.20296H40.7852C41.4272 8.52493 42.7793 9.43728 44.3412 9.43728C46.5206 9.43728 48.2925 7.65603 48.2925 5.46516C48.2925 3.27428 46.5206 1.49303 44.3412 1.49303C42.7793 1.49303 41.4272 2.40538 40.7852 3.72735H33.4754V3.47909C33.4754 1.83439 32.148 0.5 30.512 0.5H26.5608ZM14.2132 21.8502H17.1766V24.8293H14.2132V21.8502ZM39.8961 24.8293V21.8502H42.8595V24.8293H39.8961Z" fill="url(#paint1_linear_308_212)"/>
</g>
<defs>
<linearGradient id="paint0_linear_308_212" x1="40.396" y1="50.7647" x2="16.7418" y2="27.1105" gradientUnits="userSpaceOnUse">
<stop stop-color="#B670FF"/>
<stop offset="1" stop-color="#9129FE"/>
</linearGradient>
<linearGradient id="paint1_linear_308_212" x1="28.5364" y1="0.5" x2="28.5364" y2="28.3049" gradientUnits="userSpaceOnUse">
<stop stop-color="#B670FF"/>
<stop offset="1" stop-color="#9129FE"/>
</linearGradient>
<clipPath id="clip0_308_212">
<rect width="60" height="60" fill="white" transform="translate(0 0.5)"/>
</clipPath>
</defs>
</svg>
