<svg width="60" height="60" viewBox="0 0 60 60" fill="none" xmlns="http://www.w3.org/2000/svg">
<path d="M37.8685 30.492C37.8685 32.1979 37.7763 33.8424 37.6149 35.41H23.368C23.1989 33.8424 23.1144 32.1979 23.1144 30.492C23.1144 28.786 23.2066 27.1415 23.368 25.5739H37.6149C37.784 27.1415 37.8685 28.786 37.8685 30.492ZM40.0816 25.5739H49.5412C49.9484 27.1492 50.1636 28.7937 50.1636 30.492C50.1636 32.1902 49.9484 33.8347 49.5412 35.41H40.0816C40.243 33.827 40.3275 32.1825 40.3275 30.492C40.3275 28.8014 40.243 27.1569 40.0816 25.5739ZM48.7343 23.1149H39.7666C38.9981 18.2046 37.4766 14.0934 35.5171 11.4653C41.534 13.056 46.429 17.4207 48.7266 23.1149H48.7343ZM37.2768 23.1149H23.7061C24.1749 20.3178 24.8972 17.8434 25.7809 15.8378C26.5878 14.0242 27.4869 12.7102 28.3552 11.8803C29.2159 11.0657 29.9305 10.8198 30.4915 10.8198C31.0524 10.8198 31.7671 11.0657 32.6277 11.8803C33.4961 12.7102 34.3952 14.0242 35.202 15.8378C36.0934 17.8357 36.8157 20.3101 37.2768 23.1149ZM21.2164 23.1149H12.2486C14.554 17.4207 19.4413 13.056 25.4659 11.4653C23.5063 14.0934 21.9848 18.2046 21.2164 23.1149ZM11.4418 25.5739H20.9013C20.7399 27.1569 20.6554 28.8014 20.6554 30.492C20.6554 32.1825 20.7399 33.827 20.9013 35.41H11.4418C11.0345 33.8347 10.8193 32.1902 10.8193 30.492C10.8193 28.7937 11.0345 27.1492 11.4418 25.5739ZM25.7809 45.1385C24.8895 43.1405 24.1749 40.6661 23.7061 37.869H37.2768C36.8081 40.6661 36.0857 43.1405 35.202 45.1385C34.3952 46.952 33.4961 48.266 32.6277 49.096C31.7671 49.9182 31.0524 50.1641 30.4915 50.1641C29.9305 50.1641 29.2159 49.9182 28.3552 49.1036C27.4869 48.2737 26.5878 46.9597 25.7809 45.1462V45.1385ZM21.2164 37.869C21.9848 42.7794 23.5063 46.8905 25.4659 49.5186C19.4413 47.9279 14.554 43.5632 12.2486 37.869H21.2164ZM48.7343 37.869C46.429 43.5632 41.5417 47.9279 35.5248 49.5186C37.4843 46.8905 38.9981 42.7794 39.7743 37.869H48.7343Z" fill="url(#paint0_linear_308_241)"/>
<defs>
<linearGradient id="paint0_linear_308_241" x1="30.4915" y1="10.8198" x2="30.4915" y2="50.1641" gradientUnits="userSpaceOnUse">
<stop stop-color="#B670FF"/>
<stop offset="1" stop-color="#9129FE"/>
</linearGradient>
</defs>
</svg>
