<svg width="38" height="34" viewBox="0 0 38 34" fill="none" xmlns="http://www.w3.org/2000/svg">
<path d="M4.75 0C2.13008 0 0 2.13008 0 4.75V28.5C0 31.1199 2.13008 33.25 4.75 33.25H33.25C35.8699 33.25 38 31.1199 38 28.5V11.875C38 9.25508 35.8699 7.125 33.25 7.125H5.9375C5.28438 7.125 4.75 6.59062 4.75 5.9375C4.75 5.28438 5.28438 4.75 5.9375 4.75H33.25C34.5637 4.75 35.625 3.68867 35.625 2.375C35.625 1.06133 34.5637 0 33.25 0H4.75ZM30.875 22.5625C29.5613 22.5625 28.5 21.5012 28.5 20.1875C28.5 18.8738 29.5613 17.8125 30.875 17.8125C32.1887 17.8125 33.25 18.8738 33.25 20.1875C33.25 21.5012 32.1887 22.5625 30.875 22.5625Z" fill="url(#paint0_linear_212_1013)"/>
<defs>
<linearGradient id="paint0_linear_212_1013" x1="19" y1="3.75699e-08" x2="19" y2="33.25" gradientUnits="userSpaceOnUse">
<stop stop-color="#B670FF"/>
<stop offset="1" stop-color="#9129FE"/>
</linearGradient>
</defs>
</svg>
